<svg width="1603" height="1278" viewBox="0 0 1603 1278" fill="none" xmlns="http://www.w3.org/2000/svg">
<g id="mohali masterplan">
<g id="roads">
<path id="Vector 1" d="M24 571L69.5 544L96.5 537.5L162 497L326.5 417.5L347 411.5H515L610.5 422.5H770H909.5H958" stroke="black"/>
<path id="Vector 2" d="M163 626.5L197 578L260 546L375 490H418.5L626 500.5H935.5H957" stroke="black"/>
<path id="Vector 3" d="M25 713.5L101 719H170L278 673.5L318 641L433 571L493.5 542" stroke="black"/>
<path id="Vector 4" d="M25 714.5L165 720H198L223 733.5L607 852.5H632L656 858.5L676.5 871L712 882.5L900 915.5L1103 975.5L1259.5 1016L1489.5 1054.5L1550.5 1073L1593 1105" stroke="black"/>
<path id="Vector 5" d="M1018.5 1204.5L1068 1106L1102 974.5L1130 860.5L1152 785L1161 718L1168.5 643.5L1161 551" stroke="black"/>
<path id="Vector 6" d="M282 667L321.5 690L376 713.5H414.5H467.5H616.5L777 719H978H1227.5L1417 707.5" stroke="black"/>
<path id="Vector 7" d="M184.5 480.5L194 493L331.5 594.5L350.5 619.5L374 637L412.5 647.5L519 637L639.5 647.5H768.5H977L1056.5 654.5L1088.5 647.5L1128 641H1197.5L1285.5 622.5L1315.5 616.5L1418 560.5L1489.5 523L1500 506.5L1545.5 375V323.5L1555 263L1575.5 179.5" stroke="black"/>
<path id="Vector 8" d="M1589 744.5L1465.5 765.5L1312.5 781L1155 787L1075.5 781L950 787H783H692H572L457 769.5" stroke="black"/>
<path id="Vector 9" d="M1405 529.5L1160 555L995.5 570.5H907H769L569 564.5H509.5H503L491.5 559.5H477.5L468 555L402 508.5" stroke="black"/>
<path id="Vector 10" d="M92.5 177L79.5 205.5L64 250V309.5L79.5 355L115.5 394.5L157.5 411.5C164.667 411.5 181 411.5 189 411.5C197 411.5 224.333 411.5 237 411.5L262 429L277 454L379 530L418.5 561.5C425.333 570.667 440.3 590.7 445.5 597.5C450.7 604.3 460 620.667 464 628L457.5 771L445.5 800.5L418.5 869" stroke="black"/>
<path id="Vector 11" d="M1555.5 1205.5L1498 1058L1508.5 1000.5L1445.5 685.5L1398 519L1344.5 374.5V315" stroke="black"/>
<path id="Vector 12" d="M21 241.5L74.5 251.5L113 258L179.5 274L358.5 286L407 258L457.5 184L501.5 167H720.5L863.5 173H1030.5L1185 245.5L1326 301L1545.5 423H1593" stroke="black"/>
<path id="Vector 13" d="M514.5 94.5V414.5V493.5" stroke="black"/>
<path id="Vector 14" d="M563 91V167.5V420.5V648.5V712" stroke="black"/>
<path id="Vector 15" d="M612.5 86V434.5V614.5L609 713.5" stroke="black"/>
<path id="Vector 16" d="M663 80V95.5L656.5 121V136L663 168.5L656.5 197.5L654 217L659 246L663 271V357.5L655 371.5L645.5 384.5V397.5L658 419.5V501L656.5 620V714V733.5L645.5 754.5L644 761V798.5L641.5 853" stroke="black"/>
<path id="Vector 17" d="M712 82V420L709 429L699.5 440L697.5 449L702 456L712 470.5L711 596L726 608L712 619.5L710 620.5V656.5L703.5 666L701.5 668.5V689L708.5 697L706.5 785L705.5 810.5L682 818.5L681 871.5L659.5 927.5" stroke="black"/>
<path id="Vector 18" d="M768 76V645" stroke="black"/>
<path id="Vector 19" d="M750.5 706L747.5 886.5H739V894L719.5 950.5" stroke="black"/>
<path id="Vector 20" d="M820 76.5V581.5L804 595.5L797.5 894.5V907L802 918.5V941L797.5 949L794 953.5V964" stroke="black"/>
<path id="Vector 21" d="M869 80V504V570.5H849.5L853 579L862.5 591V674.5L860.5 769.5V829V858.5L855 907" stroke="black"/>
<path id="Vector 22" d="M910 80V391.5V571L906.5 709.5V798.5L910 809V855.5" stroke="black"/>
<path id="Vector 23" d="M960 88V193.5V397L954 496V577.5V612.5L958 648" stroke="black"/>
<path id="Vector 24" d="M1087 563V648L1081 722L1078 785.5V803L1049 893L1025.5 951" stroke="black"/>
<path id="Vector 25" d="M19 831.5L57 855.5L97.5 884.5L172.5 912.5L205.5 925.5L280.5 966L370.5 995L428.5 1007.5L468 1014L536.5 1030.5L597.5 1057L641 1062L687 1076L721 1092L825 1124.5L925.5 1155L955 1162.5L970.5 1169L1027 1175.5L1068 1185.5L1108 1207" stroke="black"/>
<path id="Vector 26" d="M519.5 268H566.5L621 276H729.5H872H914.5L960 268" stroke="black"/>
</g>
<g id="sectors">
<path id="62" d="M818 500H768.5V571H818V500Z" stroke="black"/>
<path id="61" d="M713 500H770V567H713V500Z" stroke="black"/>
<path id="59" d="M611 499V568H658V499H611Z" stroke="black"/>
<path id="60" d="M710.5 500H660V568H710.5V500Z" stroke="black"/>
<path id="58" d="M612 499H559V565.5H612V499Z" stroke="black"/>
<path id="73" d="M610.5 568L516 563.5L524.5 574.5V590.5L516 611V620L513 630.5L530.5 638.5L610.5 642V568Z" stroke="black"/>
<path id="72" d="M656.5 569.5H609.5V643H656.5V569.5Z" stroke="black"/>
<path id="70" d="M770.5 569.5H711.5V597L724 609L711.5 620.5V644.5H770.5V569.5Z" stroke="black"/>
<path id="71" d="M711.5 568.5H661H656.5V645H711.5V621.5L724.5 610L711.5 599V568.5Z" stroke="black"/>
<path id="69" d="M818.5 572H769L770.5 646L803.5 647.5V596.5L818.5 581.5V572Z" stroke="black"/>
<path id="68" d="M848.5 571.5H819V581.5L803.5 597V647.5H863V590.5L848.5 571.5Z" stroke="black"/>
<path id="67" d="M908 571.5H848.5L863 590V647.5L908 646V571.5Z" stroke="black"/>
<path id="63" d="M868.5 499H819V569.5H868.5V499Z" stroke="black"/>
<path id="64" d="M909 500.5H869.5L867 571H909V500.5Z" stroke="black"/>
<path id="65" d="M955 502H910L908 571L955 572.5V502Z" stroke="black"/>
<path id="66" d="M954 572.5L908.5 574.5V648H957L954 572.5Z" stroke="black"/>
<path id="79" d="M862 647.5H802.5L801 717L862 715.5V647.5Z" stroke="black"/>
<path id="78" d="M802 646.5H750.5V651.5L779 675.5L755 702.5V706H750.5V714L802 716V646.5Z" stroke="black"/>
<path id="77" d="M751 645H711.5H709.5V659L702.5 665.5V690L707.5 696.5V715H751V705H755V702L779 675.5L751 651V645Z" stroke="black"/>
<path id="76" d="M710.5 645.5H656L655 715L707.5 713.5V697L703 691V666L710.5 659.5V645.5Z" stroke="black"/>
<path id="75" d="M658.5 644.5H611.5L608.5 714.5H656.5L658.5 644.5Z" stroke="black"/>
<path id="74" d="M610.5 643L533 641V643L542 649L549.5 653.5L554.5 661.5L556.5 667.5L554.5 673.5L545.5 689.5V696.5L549.5 705.5V712.5H608.5L610.5 643Z" stroke="black"/>
<path id="80" d="M909 647H862.5V715.5H907V705L909 647Z" stroke="black"/>
<path id="81" d="M985.5 648.5H909.5L906 714L979 716V710.5L985.5 648.5Z" stroke="black"/>
<path id="84" d="M977.5 716L905.5 718V787H972V780.5L977.5 716Z" stroke="black"/>
<path id="85" d="M907 718H859.5L857 786.5H905.5L907 718Z" stroke="black"/>
<path id="86" d="M862.5 720H803L799.5 787H860L862.5 720Z" stroke="black"/>
<path id="105" d="M857.5 859H797.5V893.5L857.5 901.5L862 883.5L857.5 859Z" stroke="black"/>
<path id="87" d="M801 718.5H750L749 786.5L801 788.5V718.5Z" stroke="black"/>
<path id="88" d="M751.5 717.5H707.5L705 788.5H749L751.5 717.5Z" stroke="black"/>
<path id="89" d="M708 715.5H655.5L658 730.5L643.5 755V786.5H705.5L708 715.5Z" stroke="black"/>
<path id="90" d="M593 787H644V756.5L657 731.5L654 714.5H606L608 736.5L593 754V787Z" stroke="black"/>
<path id="91" d="M606 715H549L544.5 718.5V725.5L555.5 733.5L560.5 743.5L555.5 785H596L593 756.5L608.5 738L606 715Z" stroke="black"/>
<path id="96" d="M751 790H704.5V810.5L682 815.5V828H746L751 790Z" stroke="black"/>
<path id="95" d="M704 790.5H643.5L641 850L658.5 855.5L670.5 863.5L675.5 868.5H680.5L683 816.5L704 812V790.5Z" stroke="black"/>
<path id="94" d="M644 787.5H593.5V811.5L578 838.5L607.5 847.5H624.5L641.5 850.5L644 787.5Z" stroke="black"/>
<path id="93" d="M592 788.5L555 786L550 791L543 793.5L537.5 808.5L543 813L537.5 828L577.5 838.5L592 813V788.5Z" stroke="black"/>
<path id="107" d="M748.5 829H682.5L680 870.5L710 879.5L745.5 884.5L748.5 829Z" stroke="black"/>
<path id="97" d="M800.5 790L797.5 859H746.5L749 788H800.5" stroke="black"/>
<path id="98" d="M800 788.5V856.5L859 858.5L861 788.5H800Z" stroke="black"/>
<path id="99" d="M910 859H861V786.5H907V799.5L910 813V859Z" stroke="black"/>
<path id="100" d="M971 789H908L905 801.5L911.5 812L908 858.5H950.5L965.5 825.5L971 789Z" stroke="black"/>
<path id="104" d="M952 859.5H859.5L862.5 879.5L855 902.5L904.5 913L952 859.5Z" stroke="black"/>
<path id="109" d="M797.5 896L743 886.5L720 944L755 958.5L787 965L797.5 958.5L793.5 953L802.5 944V926.5L797.5 910.5V896Z" stroke="black"/>
<path id="106" d="M796 857H746V883L796 894V857Z" stroke="black"/>
<path id="127" d="M190.5 710.5L284.5 670L378.5 718L391 715.5V747.5L380.5 780.5L219 730L190.5 710.5Z" stroke="black"/>
<path id="57" d="M499 546L518.5 567.5H560V509L544 496.5H518.5H509.5H481.5L487 521.5L494.5 540.5L499 546Z" stroke="black"/>
<path id="92-A" d="M514.5 780L459 769.5L445 802.5L514.5 821V780Z" stroke="black"/>
<path id="110" d="M743.5 887L679.5 871.5V887L656 930L718.5 948L743.5 887Z" stroke="black"/>
<path id="111" d="M663.5 861.5L639 852.5L635.5 873.5L616 917.5L657 931L680 886.5V873.5H672V870.5L663.5 861.5Z" stroke="black"/>
<path id="112" d="M627.5 849.5L641 854L638 872L617 918.5L557 903L571 875L576.5 840.5L610.5 849.5H627.5Z" stroke="black"/>
<path id="113" d="M576.5 841.5L535.5 831V844.5V862L521 876.5L531.5 887L528 893L559.5 903L573 876.5L576.5 841.5Z" stroke="black"/>
<path id="115" d="M455 809L297 757L291 766L297 772.5L306 775.5L314 785.5H322.5L337.5 794.5L348 797H358V802H368L403.5 809V819L396.5 831L413.5 835.5L441 840L445.5 831V819L455 809Z" stroke="black"/>
<path id="114" d="M528 830L470.5 815L457 821.5L450.5 839L457 861V871.5L515 888V884V880.5L506.5 876.5V871.5L515 868L524 861L528 851.5L524 839L528 830Z" stroke="black"/>
<path id="108" d="M905.5 913L795.5 896.5V913L805 926.5L801.5 941.5L795.5 952V958.5L818.5 952L848 945.5L869.5 930L905.5 913Z" stroke="black"/>
<path id="116" d="M412.5 716.5H393V749L382.5 780.5L445 802.5L460 768V712.5H425.5L412.5 716.5Z" stroke="black"/>
<path id="92" d="M515.5 714H460V767.5L515.5 777.5V714Z" stroke="black"/>
<path id="74-A" opacity="0.4" d="M513.5 639L463.5 644L459.5 714H513.5C519 714.167 531.6 714.4 538 714C544.4 713.6 543 708.5 541.5 706L538 696.5V689L545.5 680V662.5C545.5 658.9 540.5 657 538 656.5L530 648.5L513.5 639Z" stroke="black"/>
<path id="117" d="M460.5 643L401 646.5L395.5 717L423.5 712H460.5V643Z" stroke="black"/>
<path id="118" d="M374.5 634L350 620L428 574.5L460 616.5L465.5 627.5L460 642.5L424 646.5H399L374.5 634Z" stroke="black"/>
<path id="119" d="M492 544L427.5 573L462.5 620V642L509.5 636C509.5 634.333 510.3 630.4 513.5 628C516.7 625.6 514.833 624.333 513.5 624L509.5 620C509.667 617.167 510.7 611.1 513.5 609.5C516.3 607.9 514.667 605.833 513.5 605L520.5 595.5L524 577L513.5 568L492 544Z" stroke="black"/>
<path id="126" d="M396.5 645.5L349.5 619L312.5 645.5L283 668L381 715.5H393.5L396.5 645.5Z" stroke="black"/>
<path id="120" d="M344 503.5L261 544L327.5 593L349 618.5L428.5 573.5L344 503.5Z" stroke="black"/>
<path id="121" d="M372.5 490.5L347.5 502.5L430.5 574L493 541L486.5 530L477 494.5L372.5 490.5Z" stroke="black"/>
<path id="122" d="M445 474.5V467L441.5 464L439.5 462C436.5 462 429.6 462 426 462C422.4 462 424.5 459 426 457.5V454H421.5L419.5 450L421.5 445.5L419.5 443L412 440L407 443L398 435H390H386H376.5L371 415H362H327.5L270 443L281.5 462L312.75 484L344 506L367 491.5L376.5 486H398L470.5 491.5V486L463 483L457.5 486L445 483" stroke="black"/>
<path id="123" d="M183.5 485L270.5 443L283.5 459.5L343 502.5L260 542L183.5 485Z" stroke="black"/>
<path id="124" opacity="0.1" d="M155 500L186.5 485L259.5 543L207.5 570.5L192.5 582L160 625L155 620V615.5H148.5H141.5V620H134.5H130.5L134.5 629.5H122V635L114.5 629.5L99.5 611L94 582L103.5 566.5L114.5 558.5L134.5 551.5L148.5 533.5L151.75 516.75L155 500Z" stroke="black"/>
<path id="125" d="M195.5 580.5L161 627L191 655L195.5 662.5L217 659V648L232 651.5L247.5 621.5L276 633L282 648L301 651.5L346 617L334.5 595.5L259 545L223 562L195.5 580.5Z" stroke="black"/>
<path id="56" d="M477 469.5L466 485H473L466 494H477L492.5 543L500.5 538L559.5 480.5V417.5L512.5 413.5V458.5L496 452H487H481L473 458.5L477 469.5Z" stroke="black"/>
<path id="55" d="M612 421.5L559.5 418V497H612V421.5Z" stroke="black"/>
<path id="54" d="M657 419.5H611.5V497H657V419.5Z" stroke="black"/>
<path id="53" d="M712 419.5H659V498.5H712V485V470.5L702.5 459.5L695.5 449.5L702.5 435L712 419.5Z" stroke="black"/>
<path id="66-A" d="M1031 566L995 571L984.5 653H1039L1084.5 646.5V559L1031 566Z" stroke="black"/>
<path id="66-B" d="M1161.5 552.5L1083.5 563V647L1166 638.5L1161.5 552.5Z" stroke="black"/>
<path id="82" d="M1041 653.5H986.5L978.5 715.5H1078.5L1082.5 648.5L1041 653.5Z" stroke="black"/>
<path id="101" d="M1079 787.5H974L966.5 821.5L952 860L1054.5 880L1073.5 817.5L1079 787.5Z" stroke="black"/>
<path id="101-A" d="M1147.5 788H1077.5L1070.5 822.5L1054.5 880.5L1070.5 885L1126 889L1147.5 788Z" stroke="black"/>
<path id="83-A" d="M1161 719H1079V785.5H1149L1161 719Z" stroke="black"/>
<path id="83" d="M1079 717.5H978.5L972.5 784.5H1079V717.5Z" stroke="black"/>
<path id="82A" d="M1164 641L1082.5 649.5L1079 717H1119H1160L1164 681V641Z" stroke="black"/>
</g>
</g>
</svg>
