<svg width="1575" height="1132" viewBox="0 0 1575 1132" fill="none" xmlns="http://www.w3.org/2000/svg">
<path d="M5.267 495L50.767 468L77.767 461.5L143.267 421L307.767 341.5L328.267 335.5H496.267L591.767 346.5H751.267H890.767H939.267" stroke="black"/>
<path d="M144.267 550.5L178.267 502L241.267 470L356.267 414H399.767L607.267 424.5H916.767H938.267" stroke="black"/>
<path d="M6.267 637.5L82.267 643H151.267L259.267 597.5L299.267 565L414.267 495L474.767 466" stroke="black"/>
<path d="M6.267 638.5L146.267 644H179.267L204.267 657.5L588.267 776.5H613.267L637.267 782.5L657.767 795L693.267 806.5L881.267 839.5L1084.27 899.5L1240.77 940L1470.77 978.5L1531.77 997L1574.27 1029" stroke="black"/>
<path d="M999.767 1128.5L1049.27 1030L1083.27 898.5L1111.27 784.5L1133.27 709L1142.27 642L1149.77 567.5L1142.27 475" stroke="black"/>
<path d="M263.267 591L302.767 614L357.267 637.5H395.767H448.767H597.767L758.267 643H959.267H1208.77L1398.27 631.5" stroke="black"/>
<path d="M165.767 404.5L175.267 417L312.767 518.5L331.767 543.5L355.267 561L393.767 571.5L500.267 561L620.767 571.5H749.767H958.267L1037.77 578.5L1069.77 571.5L1109.27 565H1178.77L1266.77 546.5L1296.77 540.5L1399.27 484.5L1470.77 447L1481.27 430.5L1526.77 299V247.5L1536.27 187L1556.77 103.5" stroke="black"/>
<path d="M1570.27 668.5L1446.77 689.5L1293.77 705L1136.27 711L1056.77 705L931.267 711H764.267H673.267H553.267L438.267 693.5" stroke="black"/>
<path d="M1386.27 453.5L1141.27 479L976.767 494.5H888.267H750.267L550.267 488.5H490.767H484.267L472.767 483.5H458.767L449.267 479L383.267 432.5" stroke="black"/>
<path d="M73.767 101L60.767 129.5L45.267 174V233.5L60.767 279L96.767 318.5L138.767 335.5C145.934 335.5 162.267 335.5 170.267 335.5C178.267 335.5 205.6 335.5 218.267 335.5L243.267 353L258.267 378L360.267 454L399.767 485.5C406.6 494.667 421.567 514.7 426.767 521.5C431.967 528.3 441.267 544.667 445.267 552L438.767 695L426.767 724.5L399.767 793" stroke="black"/>
<path d="M1536.77 1129.5L1479.27 982L1489.77 924.5L1426.77 609.5L1379.27 443L1325.77 298.5V239" stroke="black"/>
<path d="M2.267 165.5L55.767 175.5L94.267 182L160.767 198L339.767 210L388.267 182L438.767 108L482.767 91H701.767L844.767 97H1011.77L1166.27 169.5L1307.27 225L1526.77 347H1574.27" stroke="black"/>
<path d="M495.767 18.5V338.5V417.5" stroke="black"/>
<path d="M544.267 15V91.5V344.5V572.5V636" stroke="black"/>
<path d="M593.767 10V358.5V538.5L590.267 637.5" stroke="black"/>
<path d="M644.267 4V19.5L637.767 45V60L644.267 92.5L637.767 121.5L635.267 141L640.267 170L644.267 195V281.5L636.267 295.5L626.767 308.5V321.5L639.267 343.5V425L637.767 544V638V657.5L626.767 678.5L625.267 685V722.5L622.767 777" stroke="black"/>
<path d="M693.267 6V344L690.267 353L680.767 364L678.767 373L683.267 380L693.267 394.5L692.267 520L707.267 532L693.267 543.5L691.267 544.5V580.5L684.767 590L682.767 592.5V613L689.767 621L687.767 709L686.767 734.5L663.267 742.5L662.267 795.5L640.767 851.5" stroke="black"/>
<path d="M749.267 0V569" stroke="black"/>
<path d="M731.767 630L728.767 810.5H720.267V818L700.767 874.5" stroke="black"/>
<path d="M801.267 0.5V505.5L785.267 519.5L778.767 818.5V831L783.267 842.5V865L778.767 873L775.267 877.5V888" stroke="black"/>
<path d="M850.267 4V428V494.5H830.767L834.267 503L843.767 515V598.5L841.767 693.5V753V782.5L836.267 831" stroke="black"/>
<path d="M891.267 4V315.5V495L887.767 633.5V722.5L891.267 733V779.5" stroke="black"/>
<path d="M941.267 12V117.5V321L935.267 420V501.5V536.5L939.267 572" stroke="black"/>
<path d="M1068.27 487V572L1062.27 646L1059.27 709.5V727L1030.27 817L1006.77 875" stroke="black"/>
<path d="M0.266998 755.5L38.267 779.5L78.767 808.5L153.767 836.5L186.767 849.5L261.767 890L351.767 919L409.767 931.5L449.267 938L517.767 954.5L578.767 981L622.267 986L668.267 1000L702.267 1016L806.267 1048.5L906.767 1079L936.267 1086.5L951.767 1093L1008.27 1099.5L1049.27 1109.5L1089.27 1131" stroke="black"/>
<path d="M500.767 192H547.767L602.267 200H710.767H853.267H895.767L941.267 192" stroke="black"/>
</svg>
